<mxfile host="Electron" agent="Mozilla/5.0 (X11; Linux x86_64) AppleWebKit/537.36 (KHTML, like Gecko) draw.io/24.7.17 Chrome/128.0.6613.36 Electron/32.0.1 Safari/537.36" version="24.7.17">
  <diagram name="Страница — 1" id="Sy0JtiZFna_O2KOX3227">
    <mxGraphModel dx="1318" dy="662" grid="1" gridSize="10" guides="1" tooltips="1" connect="1" arrows="1" fold="1" page="1" pageScale="1" pageWidth="827" pageHeight="1169" math="0" shadow="0">
      <root>
        <mxCell id="0" />
        <mxCell id="1" parent="0" />
        <mxCell id="iWW9EhuGDG8vpdiix_yn-22" style="edgeStyle=orthogonalEdgeStyle;rounded=0;orthogonalLoop=1;jettySize=auto;html=1;entryX=0.5;entryY=0;entryDx=0;entryDy=0;" edge="1" parent="1" source="iWW9EhuGDG8vpdiix_yn-2" target="iWW9EhuGDG8vpdiix_yn-3">
          <mxGeometry relative="1" as="geometry" />
        </mxCell>
        <mxCell id="iWW9EhuGDG8vpdiix_yn-2" value="Конец" style="rounded=1;whiteSpace=wrap;html=1;arcSize=50;" vertex="1" parent="1">
          <mxGeometry x="359.9999999999998" y="40" width="120" height="40" as="geometry" />
        </mxCell>
        <mxCell id="iWW9EhuGDG8vpdiix_yn-21" style="edgeStyle=orthogonalEdgeStyle;rounded=0;orthogonalLoop=1;jettySize=auto;html=1;entryX=0.5;entryY=0;entryDx=0;entryDy=0;" edge="1" parent="1" source="iWW9EhuGDG8vpdiix_yn-3" target="iWW9EhuGDG8vpdiix_yn-6">
          <mxGeometry relative="1" as="geometry" />
        </mxCell>
        <mxCell id="iWW9EhuGDG8vpdiix_yn-3" value="" style="rounded=0;whiteSpace=wrap;html=1;" vertex="1" parent="1">
          <mxGeometry x="359.9999999999998" y="120" width="120" height="60" as="geometry" />
        </mxCell>
        <mxCell id="iWW9EhuGDG8vpdiix_yn-4" value="CHINA_ANIMAL = { &#xa;     0: &quot;Обезьяна&quot;, &#xa;     1: &quot;Петух&quot;, &#xa;     2: &quot;Собака&quot;, &#xa;     3: &quot;Свинья&quot;, &#xa;     4: &quot;Крыса&quot;, &#xa;     5: &quot;Бык&quot;, &#xa;     6: &quot;Тигр&quot;, &#xa;     7: &quot;Кролик&quot;, &#xa;     8: &quot;Дракон&quot;, &#xa;     9: &quot;Змея&quot;, &#xa;     10: &quot;Лошадь&quot;, &#xa;     11: &quot;Коза&quot;}" style="strokeWidth=1;shape=mxgraph.flowchart.annotation_2;align=left;labelPosition=right;pointerEvents=1;" vertex="1" parent="1">
          <mxGeometry x="480" y="120" width="50" height="60" as="geometry" />
        </mxCell>
        <mxCell id="iWW9EhuGDG8vpdiix_yn-5" style="edgeStyle=orthogonalEdgeStyle;rounded=0;orthogonalLoop=1;jettySize=auto;html=1;entryX=0.5;entryY=0;entryDx=0;entryDy=0;" edge="1" source="iWW9EhuGDG8vpdiix_yn-6" target="iWW9EhuGDG8vpdiix_yn-7" parent="1">
          <mxGeometry relative="1" as="geometry" />
        </mxCell>
        <mxCell id="iWW9EhuGDG8vpdiix_yn-6" value="&lt;div&gt;Вывод:&lt;/div&gt;&lt;div&gt;&quot;Введите свой год рождения: &quot;&lt;br&gt;&lt;/div&gt;" style="shape=parallelogram;perimeter=parallelogramPerimeter;whiteSpace=wrap;html=1;fixedSize=1;" vertex="1" parent="1">
          <mxGeometry x="360" y="210" width="120" height="60" as="geometry" />
        </mxCell>
        <mxCell id="iWW9EhuGDG8vpdiix_yn-20" style="edgeStyle=orthogonalEdgeStyle;rounded=0;orthogonalLoop=1;jettySize=auto;html=1;entryX=0.5;entryY=0;entryDx=0;entryDy=0;" edge="1" parent="1" source="iWW9EhuGDG8vpdiix_yn-7" target="iWW9EhuGDG8vpdiix_yn-8">
          <mxGeometry relative="1" as="geometry" />
        </mxCell>
        <mxCell id="iWW9EhuGDG8vpdiix_yn-7" value="Ввод:&lt;div&gt;birth_date&lt;/div&gt;" style="shape=parallelogram;perimeter=parallelogramPerimeter;whiteSpace=wrap;html=1;fixedSize=1;" vertex="1" parent="1">
          <mxGeometry x="360" y="300" width="120" height="60" as="geometry" />
        </mxCell>
        <mxCell id="iWW9EhuGDG8vpdiix_yn-11" style="edgeStyle=orthogonalEdgeStyle;rounded=0;orthogonalLoop=1;jettySize=auto;html=1;entryX=0.5;entryY=0;entryDx=0;entryDy=0;exitX=1;exitY=0.5;exitDx=0;exitDy=0;" edge="1" parent="1" source="iWW9EhuGDG8vpdiix_yn-8" target="iWW9EhuGDG8vpdiix_yn-10">
          <mxGeometry relative="1" as="geometry" />
        </mxCell>
        <mxCell id="iWW9EhuGDG8vpdiix_yn-12" style="edgeStyle=orthogonalEdgeStyle;rounded=0;orthogonalLoop=1;jettySize=auto;html=1;exitX=0;exitY=0.5;exitDx=0;exitDy=0;entryX=0.5;entryY=0;entryDx=0;entryDy=0;" edge="1" parent="1" source="iWW9EhuGDG8vpdiix_yn-8" target="iWW9EhuGDG8vpdiix_yn-9">
          <mxGeometry relative="1" as="geometry" />
        </mxCell>
        <mxCell id="iWW9EhuGDG8vpdiix_yn-8" value="birth_date &amp;gt; 0" style="rhombus;whiteSpace=wrap;html=1;" vertex="1" parent="1">
          <mxGeometry x="359.9999999999998" y="390" width="120" height="60" as="geometry" />
        </mxCell>
        <mxCell id="iWW9EhuGDG8vpdiix_yn-15" style="edgeStyle=orthogonalEdgeStyle;rounded=0;orthogonalLoop=1;jettySize=auto;html=1;entryX=0.5;entryY=0;entryDx=0;entryDy=0;" edge="1" parent="1" source="iWW9EhuGDG8vpdiix_yn-9" target="iWW9EhuGDG8vpdiix_yn-14">
          <mxGeometry relative="1" as="geometry">
            <Array as="points">
              <mxPoint x="280" y="560" />
              <mxPoint x="420" y="560" />
            </Array>
          </mxGeometry>
        </mxCell>
        <mxCell id="iWW9EhuGDG8vpdiix_yn-9" value="&lt;div&gt;Вывод:&lt;/div&gt;&lt;div&gt;&quot;Неправильный&lt;/div&gt;&lt;div&gt;&amp;nbsp;год&quot;&lt;br&gt;&lt;/div&gt;" style="shape=parallelogram;perimeter=parallelogramPerimeter;whiteSpace=wrap;html=1;fixedSize=1;" vertex="1" parent="1">
          <mxGeometry x="220" y="470" width="120" height="60" as="geometry" />
        </mxCell>
        <mxCell id="iWW9EhuGDG8vpdiix_yn-17" style="edgeStyle=orthogonalEdgeStyle;rounded=0;orthogonalLoop=1;jettySize=auto;html=1;entryX=0.5;entryY=0;entryDx=0;entryDy=0;" edge="1" parent="1" source="iWW9EhuGDG8vpdiix_yn-10" target="iWW9EhuGDG8vpdiix_yn-14">
          <mxGeometry relative="1" as="geometry">
            <Array as="points">
              <mxPoint x="540" y="560" />
              <mxPoint x="420" y="560" />
            </Array>
          </mxGeometry>
        </mxCell>
        <mxCell id="iWW9EhuGDG8vpdiix_yn-10" value="&lt;div&gt;Вывод:&lt;/div&gt;" style="shape=parallelogram;perimeter=parallelogramPerimeter;whiteSpace=wrap;html=1;fixedSize=1;" vertex="1" parent="1">
          <mxGeometry x="480" y="470" width="120" height="60" as="geometry" />
        </mxCell>
        <mxCell id="iWW9EhuGDG8vpdiix_yn-13" value="&quot;Ваш животный знак - &quot;,&#xa;CHINA_ANIMAL[birth_date % 12]" style="strokeWidth=1;shape=mxgraph.flowchart.annotation_2;align=left;labelPosition=right;pointerEvents=1;" vertex="1" parent="1">
          <mxGeometry x="590" y="470" width="50" height="60" as="geometry" />
        </mxCell>
        <mxCell id="iWW9EhuGDG8vpdiix_yn-14" value="Конец" style="rounded=1;whiteSpace=wrap;html=1;arcSize=50;" vertex="1" parent="1">
          <mxGeometry x="359.9999999999998" y="590" width="120" height="40" as="geometry" />
        </mxCell>
        <mxCell id="iWW9EhuGDG8vpdiix_yn-18" value="" style="endArrow=classic;html=1;rounded=0;" edge="1" parent="1">
          <mxGeometry width="50" height="50" relative="1" as="geometry">
            <mxPoint x="379.9999999999998" y="560" as="sourcePoint" />
            <mxPoint x="419.9999999999998" y="560" as="targetPoint" />
          </mxGeometry>
        </mxCell>
        <mxCell id="iWW9EhuGDG8vpdiix_yn-19" value="" style="endArrow=classic;html=1;rounded=0;" edge="1" parent="1">
          <mxGeometry width="50" height="50" relative="1" as="geometry">
            <mxPoint x="459.9999999999998" y="560" as="sourcePoint" />
            <mxPoint x="419.9999999999998" y="560" as="targetPoint" />
          </mxGeometry>
        </mxCell>
        <mxCell id="iWW9EhuGDG8vpdiix_yn-23" value="" style="endArrow=classic;html=1;rounded=0;" edge="1" parent="1">
          <mxGeometry width="50" height="50" relative="1" as="geometry">
            <mxPoint x="319.9999999999998" y="420" as="sourcePoint" />
            <mxPoint x="279.9999999999998" y="420" as="targetPoint" />
          </mxGeometry>
        </mxCell>
        <mxCell id="iWW9EhuGDG8vpdiix_yn-24" value="" style="endArrow=classic;html=1;rounded=0;" edge="1" parent="1" source="iWW9EhuGDG8vpdiix_yn-8">
          <mxGeometry width="50" height="50" relative="1" as="geometry">
            <mxPoint x="479.99999999999955" y="420" as="sourcePoint" />
            <mxPoint x="540" y="420" as="targetPoint" />
          </mxGeometry>
        </mxCell>
        <mxCell id="iWW9EhuGDG8vpdiix_yn-25" value="" style="endArrow=classic;html=1;rounded=0;" edge="1" parent="1">
          <mxGeometry width="50" height="50" relative="1" as="geometry">
            <mxPoint x="280" y="540" as="sourcePoint" />
            <mxPoint x="279.70999999999975" y="560" as="targetPoint" />
          </mxGeometry>
        </mxCell>
        <mxCell id="iWW9EhuGDG8vpdiix_yn-26" value="" style="endArrow=classic;html=1;rounded=0;" edge="1" parent="1">
          <mxGeometry width="50" height="50" relative="1" as="geometry">
            <mxPoint x="540" y="540" as="sourcePoint" />
            <mxPoint x="539.7099999999998" y="560" as="targetPoint" />
          </mxGeometry>
        </mxCell>
        <mxCell id="iWW9EhuGDG8vpdiix_yn-27" value="01" style="text;html=1;align=center;verticalAlign=middle;whiteSpace=wrap;rounded=0;" vertex="1" parent="1">
          <mxGeometry x="360" y="20" width="30" height="20" as="geometry" />
        </mxCell>
        <mxCell id="iWW9EhuGDG8vpdiix_yn-28" value="02" style="text;html=1;align=center;verticalAlign=middle;whiteSpace=wrap;rounded=0;" vertex="1" parent="1">
          <mxGeometry x="360" y="100" width="30" height="20" as="geometry" />
        </mxCell>
        <mxCell id="iWW9EhuGDG8vpdiix_yn-29" value="03" style="text;html=1;align=center;verticalAlign=middle;whiteSpace=wrap;rounded=0;" vertex="1" parent="1">
          <mxGeometry x="360" y="190" width="30" height="20" as="geometry" />
        </mxCell>
        <mxCell id="iWW9EhuGDG8vpdiix_yn-30" value="04" style="text;html=1;align=center;verticalAlign=middle;whiteSpace=wrap;rounded=0;" vertex="1" parent="1">
          <mxGeometry x="360" y="280" width="30" height="20" as="geometry" />
        </mxCell>
        <mxCell id="iWW9EhuGDG8vpdiix_yn-31" value="05" style="text;html=1;align=center;verticalAlign=middle;whiteSpace=wrap;rounded=0;" vertex="1" parent="1">
          <mxGeometry x="360" y="380" width="30" height="20" as="geometry" />
        </mxCell>
        <mxCell id="iWW9EhuGDG8vpdiix_yn-32" value="06" style="text;html=1;align=center;verticalAlign=middle;whiteSpace=wrap;rounded=0;" vertex="1" parent="1">
          <mxGeometry x="220" y="450" width="30" height="20" as="geometry" />
        </mxCell>
        <mxCell id="iWW9EhuGDG8vpdiix_yn-33" value="07" style="text;html=1;align=center;verticalAlign=middle;whiteSpace=wrap;rounded=0;" vertex="1" parent="1">
          <mxGeometry x="480" y="450" width="30" height="20" as="geometry" />
        </mxCell>
        <mxCell id="iWW9EhuGDG8vpdiix_yn-34" value="08" style="text;html=1;align=center;verticalAlign=middle;whiteSpace=wrap;rounded=0;" vertex="1" parent="1">
          <mxGeometry x="360" y="570" width="30" height="20" as="geometry" />
        </mxCell>
        <mxCell id="iWW9EhuGDG8vpdiix_yn-35" value="Переменные:&lt;div&gt;Integer: birth_date&amp;nbsp;&lt;/div&gt;&lt;div&gt;&lt;br&gt;&lt;/div&gt;&lt;div&gt;Константы:&amp;nbsp;&lt;span style=&quot;background-color: initial;&quot;&gt;CHINA_ANIMAL&lt;/span&gt;&lt;span style=&quot;background-color: initial; white-space-collapse: preserve;&quot;&gt;&#x9;&lt;/span&gt;&lt;/div&gt;" style="text;html=1;align=left;verticalAlign=middle;resizable=0;points=[];autosize=1;strokeColor=none;fillColor=none;" vertex="1" parent="1">
          <mxGeometry x="20" y="10" width="180" height="70" as="geometry" />
        </mxCell>
        <mxCell id="iWW9EhuGDG8vpdiix_yn-37" value="&lt;div&gt;Лист 001&lt;/div&gt;" style="text;html=1;align=center;verticalAlign=middle;resizable=0;points=[];autosize=1;strokeColor=none;fillColor=none;fontStyle=4" vertex="1" parent="1">
          <mxGeometry x="750" y="649.9999999999998" width="70" height="30" as="geometry" />
        </mxCell>
      </root>
    </mxGraphModel>
  </diagram>
</mxfile>
